<svg width="21" height="20" viewBox="0 0 21 20" fill="none" xmlns="http://www.w3.org/2000/svg">
<path d="M16.5307 15.5976L14.6202 6.84087C14.4886 6.23805 14.1515 5.69295 13.671 5.30589C13.1905 4.91895 12.586 4.70581 11.969 4.70581H8.36409C7.07511 4.70581 5.95606 5.62322 5.70327 6.88718L3.96072 15.6C3.17115 15.8723 2.60217 16.6224 2.60217 17.5033V19.9999H17.8963V17.5033C17.8963 16.6197 17.3239 15.8679 16.5307 15.5976ZM6.85688 7.11789C7.00009 6.40193 7.63398 5.88228 8.36409 5.88228H11.969C12.6863 5.88228 13.3179 6.39091 13.4708 7.09165L15.3032 15.4901H10.8375V14.0535C12.0693 13.7834 12.9943 12.6842 12.9943 11.3725C12.9943 9.85879 11.7629 8.62738 10.2492 8.62738C8.73558 8.62738 7.50413 9.85879 7.50413 11.3725C7.50413 12.6842 8.42915 13.7834 9.661 14.0535V15.4901H5.18245L6.85688 7.11789ZM10.2492 12.9411C9.38429 12.9411 8.6806 12.2374 8.6806 11.3725C8.6806 10.5075 9.38429 9.80385 10.2492 9.80385C11.1142 9.80385 11.8179 10.5075 11.8179 11.3725C11.8179 12.2374 11.1142 12.9411 10.2492 12.9411ZM16.7198 18.8235H3.77864V17.5033C3.77864 17.0419 4.15398 16.6666 4.61531 16.6666H15.8832C16.3445 16.6666 16.7198 17.0419 16.7198 17.5033V18.8235Z" fill="black"/>
<path d="M9.66101 0H10.8375V3.52941H9.66101V0Z" fill="black"/>
<path d="M16.4829 7.42114L19.9453 6.72938L20.1759 7.8835L16.7135 8.57526L16.4829 7.42114Z" fill="black"/>
<path d="M14.5374 3.89917L17.0326 1.40387L17.8644 2.23564L15.3691 4.73094L14.5374 3.89917Z" fill="black"/>
<path d="M0.332275 7.87646L0.562872 6.72231L4.02523 7.41407L3.79463 8.56823L0.332275 7.87646Z" fill="black"/>
<path d="M2.63123 2.23413L3.46299 1.40236L5.95828 3.89766L5.12651 4.72943L2.63123 2.23413Z" fill="black"/>
</svg>
