<svg width="16" height="22" viewBox="0 0 16 22" fill="none" xmlns="http://www.w3.org/2000/svg">
<path d="M14.8174 5.41679L14.4993 16.1387C14.4554 17.6204 13.7289 19.0211 12.4797 20.0328C9.87828 22.1393 5.76555 22.0173 3.29363 19.7602C2.10657 18.6763 1.46438 17.235 1.50834 15.7533L1.8359 4.71187C1.8652 3.72404 2.34954 2.79022 3.18236 2.11582C4.91661 0.711446 7.65843 0.792787 9.30638 2.2975C10.0978 3.02009 10.5259 3.98098 10.4966 4.9688L10.1785 15.6907C10.1638 16.1846 9.92167 16.6515 9.50526 16.9887C8.63813 17.6909 7.26722 17.6502 6.44325 16.8979C6.04756 16.5366 5.8335 16.0561 5.84815 15.5622L6.15676 5.15985" stroke="black"/>
</svg>
