<svg width="22" height="22" viewBox="0 0 22 22" fill="none" xmlns="http://www.w3.org/2000/svg">
<path d="M8.49641 11.9085L8.14286 11.555L7.43575 12.2621L7.7893 12.6156L8.49641 11.9085ZM11 15.1192L10.6464 15.4728L11 15.8263L11.3536 15.4728L11 15.1192ZM14.2107 12.6156L14.5642 12.2621L13.8571 11.555L13.5036 11.9085L14.2107 12.6156ZM1 10.8335H0.5H1ZM11 0.833496V0.333496V0.833496ZM11 20.8335V20.3335V20.8335ZM21 10.8335H20.5H21ZM7.7893 12.6156L10.6464 15.4728L11.3536 14.7657L8.49641 11.9085L7.7893 12.6156ZM11.3536 15.4728L14.2107 12.6156L13.5036 11.9085L10.6464 14.7657L11.3536 15.4728ZM11.5 15.1192V5.8335H10.5V15.1192H11.5ZM1.5 10.8335C1.5 5.58679 5.7533 1.3335 11 1.3335V0.333496C5.20101 0.333496 0.5 5.03451 0.5 10.8335H1.5ZM11 20.3335C5.75329 20.3335 1.5 16.0802 1.5 10.8335H0.5C0.5 16.6325 5.20101 21.3335 11 21.3335V20.3335ZM20.5 10.8335C20.5 16.0802 16.2467 20.3335 11 20.3335V21.3335C16.799 21.3335 21.5 16.6325 21.5 10.8335H20.5ZM21.5 10.8335C21.5 5.03451 16.799 0.333496 11 0.333496V1.3335C16.2467 1.3335 20.5 5.58679 20.5 10.8335H21.5Z" fill="black"/>
</svg>
