<svg width="22" height="22" viewBox="0 0 22 22" fill="none" xmlns="http://www.w3.org/2000/svg">
<path d="M11 10.8335H10.5C10.5 10.9661 10.5527 11.0933 10.6464 11.187L11 10.8335ZM11 20.3335C5.7533 20.3335 1.5 16.0802 1.5 10.8335H0.5C0.5 16.6325 5.20101 21.3335 11 21.3335V20.3335ZM20.5 10.8335C20.5 16.0802 16.2467 20.3335 11 20.3335V21.3335C16.799 21.3335 21.5 16.6325 21.5 10.8335H20.5ZM11 1.3335C16.2467 1.3335 20.5 5.58679 20.5 10.8335H21.5C21.5 5.03451 16.799 0.333496 11 0.333496V1.3335ZM11 0.333496C5.20101 0.333496 0.5 5.03451 0.5 10.8335H1.5C1.5 5.58679 5.7533 1.3335 11 1.3335V0.333496ZM10.5 4.40492V10.8335H11.5V4.40492H10.5ZM10.6464 11.187L14.9322 15.4728L15.6393 14.7657L11.3536 10.4799L10.6464 11.187Z" fill="black"/>
</svg>
