<svg width="22" height="22" viewBox="0 0 22 22" fill="none" xmlns="http://www.w3.org/2000/svg">
<path d="M9.57143 7.97635L9.8195 7.54223C9.66475 7.4538 9.47462 7.45444 9.32047 7.5439C9.16631 7.63336 9.07143 7.79812 9.07143 7.97635H9.57143ZM9.57143 13.6906H9.07143C9.07143 13.8689 9.16631 14.0336 9.32047 14.1231C9.47462 14.2126 9.66475 14.2132 9.8195 14.1248L9.57143 13.6906ZM14.5714 10.8335L14.8195 11.2676C14.9753 11.1786 15.0714 11.0129 15.0714 10.8335C15.0714 10.6541 14.9753 10.4884 14.8195 10.3994L14.5714 10.8335ZM11 20.3335C5.7533 20.3335 1.5 16.0802 1.5 10.8335H0.5C0.5 16.6325 5.20101 21.3335 11 21.3335V20.3335ZM20.5 10.8335C20.5 16.0802 16.2467 20.3335 11 20.3335V21.3335C16.799 21.3335 21.5 16.6325 21.5 10.8335H20.5ZM11 1.3335C16.2467 1.3335 20.5 5.58679 20.5 10.8335H21.5C21.5 5.03451 16.799 0.333496 11 0.333496V1.3335ZM11 0.333496C5.20101 0.333496 0.5 5.03451 0.5 10.8335H1.5C1.5 5.58679 5.7533 1.3335 11 1.3335V0.333496ZM9.07143 7.97635V13.6906H10.0714V7.97635H9.07143ZM9.8195 14.1248L14.8195 11.2676L14.3234 10.3994L9.32336 13.2565L9.8195 14.1248ZM14.8195 10.3994L9.8195 7.54223L9.32336 8.41047L14.3234 11.2676L14.8195 10.3994Z" fill="black"/>
</svg>
