<svg width="22" height="22" viewBox="0 0 22 22" fill="none" xmlns="http://www.w3.org/2000/svg">
<path d="M5.28571 18.8574V18.1429C5.28571 15.776 7.20449 13.8574 9.57143 13.8574H12.4286C14.7955 13.8574 16.7143 15.776 16.7143 18.1429V18.8574M11 5.28596C9.42204 5.28596 8.14286 6.56515 8.14286 8.1431C8.14286 9.72106 9.42204 11.0002 11 11.0002C12.578 11.0002 13.8571 9.72106 13.8571 8.1431C13.8571 6.56515 12.578 5.28596 11 5.28596ZM11 21.0002C5.47715 21.0002 1 16.5231 1 11.0002C1 5.4774 5.47715 1.00024 11 1.00024C16.5228 1.00024 21 5.4774 21 11.0002C21 16.5231 16.5228 21.0002 11 21.0002Z" stroke="black" stroke-linecap="square"/>
</svg>
