<svg width="20" height="20" viewBox="0 0 20 20" fill="none" xmlns="http://www.w3.org/2000/svg">
<path d="M19.2462 9.24621C18.8299 9.24621 18.4925 9.58363 18.4925 10C18.4925 14.6829 14.6829 18.4925 10 18.4925C5.31734 18.4925 1.50754 14.6829 1.50754 10C1.50754 5.31734 5.31734 1.50754 10 1.50754C10.4163 1.50754 10.7538 1.17012 10.7538 0.753789C10.7538 0.337422 10.4163 0 10 0C4.48594 0 0 4.48594 0 10C0 15.5138 4.48594 20 10 20C15.5138 20 20 15.5138 20 10C20 9.58367 19.6626 9.24621 19.2462 9.24621Z" fill="black"/>
</svg>
