<svg width="16" height="16" viewBox="0 0 16 16" fill="none" xmlns="http://www.w3.org/2000/svg">
<path d="M14.5307 11.5976L12.6202 2.84087C12.4886 2.23805 12.1515 1.69295 11.671 1.30589C11.1905 0.918948 10.586 0.705811 9.96904 0.705811H6.36409C5.07511 0.705811 3.95606 1.62322 3.70327 2.88718L1.96072 11.6C1.17115 11.8723 0.602173 12.6224 0.602173 13.5033V15.9999H15.8963V13.5033C15.8963 12.6197 15.3239 11.8679 14.5307 11.5976ZM4.85688 3.11789C5.00009 2.40193 5.63398 1.88228 6.36409 1.88228H9.96904C10.6863 1.88228 11.3179 2.39091 11.4708 3.09165L13.3032 11.4901H8.83747V10.0535C10.0693 9.78338 10.9943 8.6842 10.9943 7.37248C10.9943 5.85879 9.76292 4.62738 8.24923 4.62738C6.73558 4.62738 5.50413 5.85879 5.50413 7.37248C5.50413 8.6842 6.42915 9.78338 7.661 10.0535V11.4901H3.18245L4.85688 3.11789ZM8.24923 8.9411C7.38429 8.9411 6.6806 8.23742 6.6806 7.37248C6.6806 6.50754 7.38429 5.80385 8.24923 5.80385C9.11417 5.80385 9.81786 6.50754 9.81786 7.37248C9.81786 8.23742 9.11417 8.9411 8.24923 8.9411ZM14.7198 14.8235H1.77864V13.5033C1.77864 13.0419 2.15398 12.6666 2.61531 12.6666H13.8832C14.3445 12.6666 14.7198 13.0419 14.7198 13.5033V14.8235Z" fill="black"/>
</svg>
